<?xml version="1.0" standalone="no"?>
<!DOCTYPE svg PUBLIC "-//W3C//DTD SVG 20010904//EN"
 "http://www.w3.org/TR/2001/REC-SVG-20010904/DTD/svg10.dtd">
<svg version="1.0" xmlns="http://www.w3.org/2000/svg"
 width="868.000000pt" height="814.000000pt" viewBox="0 0 868.000000 814.000000"
 preserveAspectRatio="xMidYMid meet">

<g transform="translate(0.000000,814.000000) scale(0.100000,-0.100000)"
fill="#000000" stroke="none">
<path d="M3995 7934 c-22 -2 -92 -9 -155 -15 -742 -70 -1481 -414 -2028 -944
-312 -301 -518 -585 -707 -970 -253 -513 -368 -1043 -352 -1610 11 -374 67
-680 189 -1034 75 -217 120 -315 148 -319 41 -7 41 12 -1 109 -94 216 -189
535 -228 769 -36 209 -44 322 -44 570 0 322 25 534 98 820 202 798 659 1462
1343 1954 406 292 941 504 1457 577 584 83 1184 13 1720 -198 477 -188 881
-463 1240 -843 499 -529 807 -1203 896 -1960 7 -58 12 -215 12 -350 0 -248 -8
-361 -44 -570 -39 -234 -134 -553 -228 -769 -42 -97 -42 -115 0 -109 18 2 31
22 67 108 395 945 358 1989 -104 2901 -449 887 -1269 1542 -2234 1784 -275 69
-477 95 -785 100 -121 2 -238 1 -260 -1z"/>
<path d="M4057 7563 c-4 -3 -7 -78 -7 -165 l0 -158 40 0 40 0 0 50 0 50 45 0
c52 0 99 21 115 49 5 11 10 40 10 64 0 55 -27 93 -78 107 -41 11 -155 14 -165
3z m163 -92 c19 -36 -15 -71 -71 -71 -16 0 -19 7 -19 45 l0 45 40 0 c29 0 42
-5 50 -19z"/>
<path d="M4587 7518 c-29 -46 -147 -269 -147 -277 0 -5 15 -11 32 -15 32 -6
50 5 60 36 2 6 27 7 62 3 52 -7 59 -10 68 -36 6 -18 19 -31 34 -35 53 -13 53
-7 17 163 -19 87 -37 161 -41 164 -4 4 -21 10 -39 14 -26 5 -34 2 -46 -17z
m47 -140 c6 -42 5 -48 -11 -48 -41 0 -46 15 -23 60 12 23 23 40 24 38 2 -1 7
-24 10 -50z"/>
<path d="M3391 7460 c-57 -16 -108 -33 -113 -38 -5 -5 -4 -20 2 -36 11 -29 16
-29 80 -11 12 4 20 -12 34 -68 40 -154 45 -167 69 -167 53 1 54 10 21 140
l-32 120 39 12 c39 11 47 26 33 62 -8 20 -9 20 -133 -14z"/>
<path d="M5007 7453 c-18 -29 -96 -298 -89 -305 5 -5 22 -10 38 -11 29 -2 30
0 67 116 42 128 43 129 105 91 42 -27 17 -82 -32 -70 -21 5 -26 1 -35 -27 -9
-27 -8 -45 7 -92 16 -53 22 -61 55 -74 21 -7 40 -11 43 -8 4 3 -1 27 -10 53
-21 63 -20 71 11 86 39 19 65 60 65 103 0 53 -36 86 -124 114 -40 13 -78 26
-84 28 -7 2 -14 1 -17 -4z"/>
<path d="M2916 7285 c-44 -19 -83 -38 -87 -42 -7 -7 106 -272 123 -289 9 -8
68 15 68 26 0 4 -22 58 -50 119 l-49 111 36 15 c43 18 55 19 71 3 18 -18 15
-36 -12 -59 -36 -31 -19 -69 51 -113 51 -32 58 -34 86 -23 46 19 43 33 -12 67
l-51 32 15 28 c19 37 19 54 -1 96 -17 35 -58 64 -91 64 -10 0 -54 -16 -97 -35z"/>
<path d="M5411 7140 l-72 -139 26 -17 c33 -21 50 -14 75 36 13 26 27 40 40 40
17 0 19 -8 22 -72 3 -70 4 -73 37 -95 19 -13 38 -20 42 -16 4 5 4 53 0 108 -4
55 -7 101 -5 103 1 2 35 16 74 30 40 15 73 31 73 36 1 6 -13 18 -30 29 -33 19
-33 19 -104 -8 -38 -15 -72 -25 -75 -22 -3 3 4 23 15 46 12 22 21 44 21 49 0
9 -43 32 -59 32 -5 0 -41 -63 -80 -140z"/>
<path d="M2498 7052 c-17 -10 -28 -25 -28 -38 0 -28 66 -303 74 -312 4 -3 19
1 34 11 21 13 26 23 25 46 -3 26 4 35 43 62 45 30 48 31 73 16 26 -15 29 -15
57 8 16 13 27 25 24 28 -11 9 -226 164 -250 180 -23 15 -27 15 -52 -1z m102
-122 c34 -28 35 -29 15 -44 -32 -24 -41 -19 -52 29 -6 25 -7 45 -4 45 3 0 22
-14 41 -30z"/>
<path d="M5890 7014 c-13 -23 -12 -27 3 -35 15 -9 12 -18 -35 -85 -47 -67 -55
-74 -78 -69 -21 5 -29 1 -40 -20 -10 -18 -11 -28 -3 -33 5 -4 36 -25 67 -47
l58 -39 18 24 c17 22 17 26 3 42 -14 15 -10 23 37 92 46 66 55 73 71 63 15 -9
21 -8 33 8 9 11 16 25 16 32 0 13 -107 93 -125 93 -6 0 -18 -12 -25 -26z"/>
<path d="M2161 6796 c-25 -27 -26 -46 -5 -115 8 -29 14 -55 12 -56 -2 -2 -36
6 -76 17 l-73 21 -26 -26 -26 -26 107 -115 c60 -64 111 -116 115 -116 14 0 51
32 51 43 -1 7 -23 37 -50 67 -27 30 -47 56 -45 58 1 2 21 -2 44 -9 49 -15 76
0 67 38 -21 83 -22 82 43 18 l61 -59 27 27 27 27 -104 108 c-58 60 -110 111
-116 115 -7 3 -21 -5 -33 -17z"/>
<path d="M6127 6682 c-59 -59 -107 -112 -107 -118 0 -6 11 -21 24 -33 l23 -22
59 61 c32 34 60 57 62 52 1 -5 -6 -49 -17 -97 -21 -96 -20 -107 14 -129 23
-15 26 -14 127 95 57 61 105 115 107 120 4 13 -28 49 -44 49 -7 0 -38 -27 -69
-61 -31 -33 -56 -56 -56 -52 0 5 9 51 20 102 l21 94 -22 23 c-13 13 -25 24
-28 24 -4 0 -55 -48 -114 -108z"/>
<path d="M5124 6621 c-21 -16 -149 -140 -284 -275 l-245 -247 -22 28 c-19 23
-26 26 -40 17 -26 -16 -28 -59 -4 -76 19 -14 14 -20 -110 -144 -72 -71 -137
-141 -145 -156 -52 -98 30 -270 188 -395 78 -62 115 -82 172 -89 92 -13 108
-4 256 142 l137 135 30 -17 c55 -32 97 11 49 49 l-27 22 247 245 c135 135 259
263 275 284 65 88 29 179 -140 347 -160 158 -251 194 -337 130z m171 -51 c129
-58 279 -241 279 -341 1 -41 6 -35 -347 -408 -331 -350 -328 -348 -445 -291
-132 65 -302 267 -302 360 0 43 32 81 216 255 98 94 237 227 309 297 71 70
144 134 160 142 33 18 67 14 130 -14z m-782 -825 c10 -14 13 -26 7 -30 -5 -3
-42 -51 -81 -106 -58 -80 -74 -97 -85 -88 -28 23 -21 39 83 187 24 34 47 62
51 62 4 0 15 -11 25 -25z m-188 -45 c7 -23 -12 -63 -28 -57 -7 2 -13 25 -15
51 -3 45 -2 47 17 37 11 -6 22 -20 26 -31z m409 -175 c10 -7 15 -18 12 -24
-11 -18 -202 -141 -218 -141 -9 0 -21 6 -27 14 -9 11 9 28 91 89 57 41 108 75
113 76 6 0 18 -6 29 -14z m-36 -191 c12 -8 22 -19 22 -25 0 -11 -66 -11 -94 0
-18 7 -18 8 5 24 29 21 39 21 67 1z"/>
<path d="M4910 6288 c-280 -271 -271 -257 -225 -357 33 -71 155 -193 226 -226
98 -45 86 -52 338 206 125 128 234 243 243 258 43 64 12 149 -91 252 -79 79
-133 109 -196 109 l-45 0 -250 -242z m410 42 c0 -5 -7 -10 -16 -10 -8 0 -12 5
-9 10 3 6 10 10 16 10 5 0 9 -4 9 -10z"/>
<path d="M3000 6609 c-51 -32 -213 -198 -233 -241 -23 -49 -22 -122 3 -174 27
-55 131 -168 184 -199 42 -24 127 -115 139 -148 4 -9 17 -21 29 -26 13 -5 75
-62 138 -126 114 -116 115 -117 93 -132 -33 -22 -28 -33 13 -33 31 0 44 -9
116 -86 85 -89 130 -119 195 -130 115 -18 318 135 373 284 41 109 18 174 -103
293 -44 44 -84 79 -89 79 -4 0 -8 18 -8 40 0 44 -13 52 -30 19 -6 -11 -15 -19
-20 -17 -5 2 -69 66 -141 143 -72 77 -137 142 -144 145 -23 9 -101 87 -123
122 -33 53 -155 166 -204 188 -59 27 -142 26 -188 -1z m114 2 c7 -11 -17 -21
-47 -21 -22 1 -22 1 -3 15 22 17 42 19 50 6z m114 -163 c42 -39 78 -73 80 -74
2 -1 -16 -13 -40 -27 -53 -31 -218 -200 -239 -245 l-16 -33 -77 83 c-72 77
-77 86 -73 120 6 47 53 115 119 171 119 100 144 101 246 5z m-248 19 c0 -2
-15 -16 -32 -33 l-33 -29 29 33 c28 30 36 37 36 29z m607 -270 c101 -99 189
-189 195 -200 36 -68 -362 293 -457 415 l-50 63 63 -49 c35 -27 147 -130 249
-229z m-787 120 c0 -18 -27 -53 -34 -46 -9 9 11 59 24 59 5 0 10 -6 10 -13z
m224 -306 c114 -99 250 -250 385 -426 8 -11 -78 72 -192 185 -189 186 -318
329 -289 319 6 -2 49 -37 96 -78z m762 -58 c87 -67 99 -88 88 -151 -26 -145
-190 -292 -325 -292 l-57 0 -68 91 -68 92 22 16 c141 100 233 191 285 282 12
20 26 35 32 31 5 -3 47 -34 91 -69z m264 -247 c0 -12 -6 -30 -13 -40 -12 -17
-14 -17 -20 -3 -8 21 12 79 24 71 5 -3 9 -15 9 -28z m-130 -230 c0 -3 -4 -8
-10 -11 -5 -3 -10 -1 -10 4 0 6 5 11 10 11 6 0 10 -2 10 -4z m-195 -116 c8
-13 -44 -33 -64 -25 -14 6 -13 8 3 21 23 16 52 18 61 4z"/>
<path d="M1770 6368 c-46 -32 -71 -68 -77 -114 -4 -33 -1 -45 22 -72 39 -47
86 -45 156 8 56 42 81 47 87 18 5 -26 -44 -71 -68 -63 -14 5 -26 0 -40 -17
-26 -32 -25 -47 7 -59 76 -29 173 54 173 150 0 32 -6 44 -31 65 -43 36 -76 33
-147 -15 -56 -38 -92 -46 -92 -21 0 21 43 62 65 62 15 0 31 10 42 26 16 25 16
27 -2 40 -27 20 -57 17 -95 -8z"/>
<path d="M6467 6340 c-36 -27 -73 -60 -81 -72 -45 -64 16 -184 103 -203 35 -7
87 14 120 49 l22 23 -41 52 c-41 52 -42 52 -63 34 -12 -10 -23 -19 -25 -20 -2
0 4 -12 13 -26 15 -23 14 -25 -1 -31 -9 -4 -28 1 -41 9 -18 13 -23 23 -21 47
2 25 15 39 61 72 56 39 59 40 85 25 22 -12 27 -22 27 -55 0 -53 26 -93 51 -78
63 38 28 165 -57 209 -49 26 -81 19 -152 -35z"/>
<path d="M2320 4915 l0 -45 45 0 45 0 0 45 0 45 -45 0 -45 0 0 -45z"/>
<path d="M3540 4915 l0 -45 45 0 45 0 0 45 0 45 -45 0 -45 0 0 -45z"/>
<path d="M4770 4915 l0 -45 45 0 45 0 0 45 0 45 -45 0 -45 0 0 -45z"/>
<path d="M5990 4915 l0 -45 45 0 45 0 0 45 0 45 -45 0 -45 0 0 -45z"/>
<path d="M2847 4875 c-126 -26 -134 -32 -196 -180 -59 -140 -66 -190 -48 -330
l8 -60 -32 -20 c-49 -30 -51 -49 -5 -41 l37 7 -8 -308 c-13 -503 -12 -577 14
-658 22 -69 23 -70 70 -85 39 -13 75 -14 188 -9 77 4 206 11 288 14 l147 7 23
72 c26 83 27 149 14 654 l-9 313 37 -7 c47 -8 45 11 -4 41 l-32 20 8 65 c17
141 11 184 -48 325 -63 149 -69 154 -204 180 -92 18 -157 18 -248 0z m-63
-112 c4 -31 3 -59 -1 -63 -19 -16 -103 -60 -103 -54 0 4 9 38 20 75 18 60 46
99 71 99 3 0 9 -26 13 -57z m201 47 c3 -5 -1 -10 -10 -10 -9 0 -13 5 -10 10 3
6 8 10 10 10 2 0 7 -4 10 -10z m222 -5 c17 -12 63 -128 63 -159 0 -6 -85 39
-103 55 -10 8 2 119 12 119 4 0 16 -7 28 -15z m-39 -293 c30 -15 70 -40 88
-57 l35 -30 -34 -145 -33 -145 -249 0 -249 0 -33 144 c-38 167 -41 156 60 218
71 43 129 53 261 47 83 -4 109 -9 154 -32z m-487 -347 c26 -125 46 -520 27
-542 -6 -8 -24 -23 -40 -34 l-28 -20 1 378 c1 395 2 401 40 218z m627 -405
l-3 -190 -38 31 -38 31 6 182 c7 186 21 305 52 436 l18 75 3 -187 c1 -103 1
-273 0 -378z m-138 -261 l0 -167 -35 -6 c-44 -9 -276 -9 -321 0 l-34 6 0 167
0 166 195 0 195 0 0 -166z"/>
<path d="M5299 4866 c-55 -14 -91 -40 -148 -101 -74 -80 -76 -89 -73 -355 l3
-236 -26 -24 c-34 -32 -32 -50 6 -50 l31 0 -3 -308 c-3 -278 -2 -311 14 -335
9 -14 28 -56 42 -93 29 -78 74 -151 95 -158 8 -2 94 -7 191 -11 l177 -7 36 54
c19 30 47 85 61 122 14 37 33 79 42 93 16 24 17 57 14 335 l-3 308 31 0 c38 0
40 18 6 50 l-26 24 3 236 c3 228 2 236 -20 282 -34 68 -130 154 -194 173 -61
18 -194 19 -259 1z m-29 -62 c0 -20 -29 -48 -81 -79 -34 -20 -63 -34 -66 -31
-9 9 106 116 126 116 12 0 21 -3 21 -6z m406 -50 c31 -31 53 -58 51 -60 -7 -8
-117 58 -132 79 -20 29 -19 37 6 37 12 0 44 -23 75 -56z m-372 -91 c-11 -53
-15 -63 -25 -63 -14 0 -11 27 6 60 19 37 27 38 19 3z m261 -3 c8 -16 15 -36
15 -45 0 -26 -19 -17 -26 13 -3 15 -8 35 -11 45 -7 27 5 20 22 -13z m52 -325
c29 -9 64 -26 78 -38 l25 -22 -35 -119 c-19 -65 -37 -121 -39 -124 -3 -2 -42
1 -87 7 -104 14 -178 14 -274 0 -42 -6 -78 -9 -81 -7 -2 3 -20 59 -39 124
l-34 119 21 22 c41 44 148 64 308 58 58 -3 129 -11 157 -20z m-452 -267 c23
-93 28 -144 32 -288 6 -231 -6 -266 -37 -110 -17 88 -24 162 -27 313 -3 108
-3 197 0 197 3 0 17 -51 32 -112z m552 -108 c-3 -125 -11 -208 -27 -290 -31
-156 -43 -121 -37 110 4 149 9 192 33 290 34 139 38 125 31 -110z m-130 -384
c3 -3 -2 -56 -11 -118 -21 -151 -32 -163 -151 -163 -116 0 -129 13 -150 150
-19 126 -19 133 2 137 28 5 304 0 310 -6z"/>
<path d="M2320 4740 l0 -51 43 3 42 3 0 45 0 45 -42 3 -43 3 0 -51z"/>
<path d="M3544 4776 c-3 -8 -4 -29 -2 -48 3 -31 5 -33 46 -36 l42 -3 0 50 0
51 -40 0 c-26 0 -43 -5 -46 -14z"/>
<path d="M4770 4740 l0 -51 43 3 42 3 0 45 0 45 -42 3 -43 3 0 -51z"/>
<path d="M5994 4776 c-3 -8 -4 -29 -2 -48 3 -31 5 -33 46 -36 l42 -3 0 50 0
51 -40 0 c-26 0 -43 -5 -46 -14z"/>
<path d="M2320 4565 l0 -45 45 0 45 0 0 45 0 45 -45 0 -45 0 0 -45z"/>
<path d="M3540 4565 l0 -45 45 0 45 0 0 45 0 45 -45 0 -45 0 0 -45z"/>
<path d="M4770 4565 l0 -45 45 0 45 0 0 45 0 45 -45 0 -45 0 0 -45z"/>
<path d="M5990 4565 l0 -45 45 0 45 0 0 45 0 45 -45 0 -45 0 0 -45z"/>
<path d="M2320 4390 l0 -51 43 3 42 3 0 45 0 45 -42 3 -43 3 0 -51z"/>
<path d="M3544 4426 c-3 -8 -4 -29 -2 -48 3 -31 5 -33 46 -36 l42 -3 0 50 0
51 -40 0 c-26 0 -43 -5 -46 -14z"/>
<path d="M4770 4390 l0 -51 43 3 42 3 0 45 0 45 -42 3 -43 3 0 -51z"/>
<path d="M5994 4426 c-3 -8 -4 -29 -2 -48 3 -31 5 -33 46 -36 l42 -3 0 50 0
51 -40 0 c-26 0 -43 -5 -46 -14z"/>
<path d="M3910 3990 l0 -390 75 0 75 0 0 144 0 144 138 4 c167 4 216 21 259
95 54 92 41 253 -26 323 -56 59 -108 70 -333 70 l-188 0 0 -390z m377 251 c63
-33 71 -152 14 -203 -30 -27 -35 -28 -136 -28 l-105 0 0 126 0 127 103 -5 c56
-2 112 -10 124 -17z"/>
<path d="M2320 4215 l0 -45 45 0 45 0 0 45 0 45 -45 0 -45 0 0 -45z"/>
<path d="M3540 4215 l0 -45 45 0 45 0 0 45 0 45 -45 0 -45 0 0 -45z"/>
<path d="M4770 4215 l0 -45 45 0 45 0 0 45 0 45 -45 0 -45 0 0 -45z"/>
<path d="M5990 4215 l0 -45 45 0 45 0 0 45 0 45 -45 0 -45 0 0 -45z"/>
<path d="M2320 4046 l0 -46 46 0 45 0 -3 43 c-3 42 -3 42 -45 45 l-43 3 0 -45z"/>
<path d="M3547 4083 c-4 -3 -7 -24 -7 -45 l0 -38 45 0 45 0 0 45 0 45 -38 0
c-21 0 -42 -3 -45 -7z"/>
<path d="M4770 4046 l0 -46 46 0 45 0 -3 43 c-3 42 -3 42 -45 45 l-43 3 0 -45z"/>
<path d="M5997 4083 c-4 -3 -7 -24 -7 -45 l0 -38 45 0 45 0 0 45 0 45 -38 0
c-21 0 -42 -3 -45 -7z"/>
<path d="M2320 3865 l0 -45 45 0 45 0 0 45 0 45 -45 0 -45 0 0 -45z"/>
<path d="M3540 3865 l0 -45 45 0 45 0 0 45 0 45 -45 0 -45 0 0 -45z"/>
<path d="M4770 3865 l0 -45 45 0 45 0 0 45 0 45 -45 0 -45 0 0 -45z"/>
<path d="M5990 3865 l0 -45 45 0 45 0 0 45 0 45 -45 0 -45 0 0 -45z"/>
<path d="M2320 3695 l0 -45 45 0 45 0 0 45 0 45 -45 0 -45 0 0 -45z"/>
<path d="M3540 3695 l0 -45 45 0 45 0 0 45 0 45 -45 0 -45 0 0 -45z"/>
<path d="M4770 3695 l0 -45 45 0 45 0 0 45 0 45 -45 0 -45 0 0 -45z"/>
<path d="M5997 3733 c-4 -3 -7 -24 -7 -45 l0 -38 45 0 45 0 0 45 0 45 -38 0
c-21 0 -42 -3 -45 -7z"/>
<path d="M2320 3515 l0 -45 45 0 45 0 0 45 0 45 -45 0 -45 0 0 -45z"/>
<path d="M3540 3515 l0 -45 45 0 45 0 0 45 0 45 -45 0 -45 0 0 -45z"/>
<path d="M4770 3515 l0 -45 45 0 45 0 0 45 0 45 -45 0 -45 0 0 -45z"/>
<path d="M5990 3515 l0 -45 45 0 45 0 0 45 0 45 -45 0 -45 0 0 -45z"/>
<path d="M2320 3345 l0 -45 45 0 45 0 0 45 0 45 -45 0 -45 0 0 -45z"/>
<path d="M3540 3345 l0 -45 45 0 45 0 0 45 0 45 -45 0 -45 0 0 -45z"/>
<path d="M4770 3345 l0 -45 45 0 45 0 0 45 0 45 -45 0 -45 0 0 -45z"/>
<path d="M5990 3345 l0 -45 45 0 45 0 0 45 0 45 -45 0 -45 0 0 -45z"/>
<path d="M2320 3184 c0 -23 3 -25 43 -22 35 2 43 7 45 26 3 20 -1 22 -42 22
-43 0 -46 -2 -46 -26z"/>
<path d="M5992 3188 c2 -19 10 -24 46 -26 39 -3 42 -1 42 22 0 24 -3 26 -46
26 -41 0 -45 -2 -42 -22z"/>
<path d="M3750 3163 c-364 -4 -1093 -36 -1445 -63 -702 -54 -1411 -132 -2015
-223 l-215 -32 3 -30 c2 -16 5 -31 5 -31 1 -1 56 7 122 17 1101 173 2391 281
3543 298 1506 21 2820 -63 4292 -275 135 -19 252 -37 261 -40 12 -3 18 4 21
27 3 17 0 33 -6 35 -23 8 -585 85 -896 123 -908 112 -1721 170 -2670 191 -406
9 -515 9 -1000 3z"/>
<path d="M4594 2969 c-117 -15 -225 -94 -278 -201 -33 -67 -51 -229 -42 -366
11 -174 109 -301 266 -346 39 -11 108 -16 240 -18 174 -2 188 -1 245 21 82 33
173 124 205 206 22 55 24 74 25 245 l0 185 -33 67 c-61 124 -174 197 -317 204
-166 9 -263 10 -311 3z m385 -189 c44 -22 86 -66 100 -103 6 -16 11 -92 11
-171 0 -136 -1 -145 -27 -197 -23 -45 -37 -59 -83 -82 l-55 -29 -166 5 c-140
4 -171 8 -205 25 -90 46 -114 99 -114 256 0 149 12 203 56 255 54 63 96 72
288 65 127 -4 166 -9 195 -24z"/>
<path d="M3625 2961 c-234 -7 -260 -13 -322 -85 -55 -62 -56 -74 -48 -473 l7
-364 82 3 81 3 -4 355 c-3 314 -2 358 12 371 13 13 55 17 231 23 198 7 219 6
253 -11 52 -25 75 -74 76 -166 2 -85 -16 -127 -66 -154 -27 -15 -64 -19 -234
-21 l-203 -3 0 -86 0 -86 215 6 c175 6 223 10 264 26 77 29 126 74 162 146 30
62 31 66 27 182 -3 100 -7 126 -28 168 -33 67 -99 130 -158 149 -67 21 -111
24 -347 17z"/>
<path d="M2555 2919 c-187 -12 -240 -26 -293 -79 -73 -70 -74 -88 -49 -500
l22 -355 80 4 c44 1 82 4 84 6 2 2 -6 159 -18 349 -11 189 -18 352 -15 361 12
29 41 35 257 47 206 11 215 11 248 -8 48 -28 69 -77 72 -167 2 -63 -1 -80 -19
-104 -38 -52 -72 -61 -284 -74 -107 -6 -196 -12 -197 -13 -1 -1 1 -39 4 -84
l6 -83 101 6 c278 18 337 24 380 44 64 28 130 93 156 153 20 47 22 64 18 168
-4 86 -10 126 -26 161 -28 64 -76 116 -136 147 -61 31 -151 36 -391 21z"/>
<path d="M5588 2916 c-53 -14 -106 -51 -141 -99 -78 -105 -59 -285 39 -365 60
-50 110 -61 348 -77 243 -16 258 -20 277 -83 9 -31 8 -45 -5 -75 -25 -62 -28
-62 -397 -39 -183 12 -334 20 -335 19 -4 -4 -7 -157 -3 -161 2 -2 155 -14 339
-25 299 -19 340 -20 383 -7 123 37 187 128 187 265 -1 104 -49 185 -139 230
-52 27 -74 30 -309 45 -196 13 -216 16 -237 36 -31 29 -38 62 -25 110 8 29 19
44 41 56 28 14 54 14 293 0 143 -9 275 -18 293 -20 l31 -4 7 79 c4 44 5 82 2
85 -4 4 -574 45 -597 43 -3 0 -26 -6 -52 -13z"/>
<path d="M6386 2799 c-4 -45 -5 -83 -4 -84 2 -2 82 -10 178 -20 96 -10 176
-18 178 -20 1 -1 -14 -162 -34 -358 -20 -196 -34 -363 -31 -370 3 -9 30 -16
78 -20 40 -3 75 -4 77 -2 3 2 21 166 41 364 20 198 39 362 42 365 3 3 82 -2
177 -11 94 -10 174 -15 177 -12 3 3 8 40 11 81 l7 76 -44 6 c-24 4 -204 22
-399 41 -195 19 -376 37 -401 41 l-46 5 -7 -82z"/>
<path d="M1685 2849 c-93 -10 -195 -23 -225 -30 -130 -27 -247 -118 -301 -233
-50 -108 -54 -157 -30 -404 12 -119 24 -237 28 -261 l6 -43 76 7 c42 4 79 10
82 13 3 4 1 53 -4 110 -5 56 -8 104 -6 106 7 6 558 60 564 55 2 -3 10 -52 16
-110 6 -57 12 -105 13 -105 2 -2 159 16 162 19 7 7 -85 836 -95 854 -25 49
-33 49 -286 22z m154 -281 c7 -68 15 -147 18 -175 5 -47 4 -53 -13 -54 -11 0
-138 -13 -284 -28 -146 -15 -267 -26 -270 -23 -3 2 -5 45 -5 95 0 75 4 100 22
132 33 62 92 110 166 134 38 13 233 37 313 40 l41 1 12 -122z"/>
<path d="M3540 1934 c-910 -31 -1620 -84 -2400 -179 -284 -35 -831 -111 -861
-120 -11 -4 -14 -14 -11 -36 4 -27 7 -29 31 -25 126 27 926 131 1306 170 911
94 1631 130 2595 130 964 0 1683 -36 2595 -130 388 -40 1223 -148 1311 -170
18 -5 22 0 26 25 3 22 0 32 -11 36 -27 7 -490 73 -781 109 -643 82 -1266 135
-1995 172 -286 14 -1545 27 -1805 18z"/>
<path d="M2135 1730 c3 -5 40 -33 83 -63 473 -333 1031 -542 1622 -608 150
-17 573 -17 720 0 535 60 1030 232 1472 509 67 43 150 98 183 122 l60 45 -47
3 c-43 3 -54 -2 -150 -66 -263 -175 -589 -331 -886 -422 -623 -191 -1331 -192
-1967 -4 -277 82 -625 244 -871 405 -119 79 -140 89 -180 89 -26 0 -43 -4 -39
-10z"/>
</g>
</svg>
